<?xml version="1.0" encoding="iso-8859-1"?>
<!-- Uploaded to: SVG Repo, www.svgrepo.com, Generator: SVG Repo Mixer Tools -->
<svg fill="#000000" height="800px" width="800px" version="1.1" id="Layer_1" xmlns="http://www.w3.org/2000/svg" xmlns:xlink="http://www.w3.org/1999/xlink" 
	 viewBox="0 0 512 512" xml:space="preserve">
<g transform="translate(1 1)">
	<g>
		<g>
			<path d="M416.974,493.933h-34.133V408.6v-51.2v-17.067c5.12,0,8.533-3.413,8.533-8.533v-34.133c0-5.12-3.413-8.533-8.533-8.533
				h-76.8v-17.067h8.533c5.12,0,8.533-3.413,8.533-8.533S319.694,255,314.574,255h-8.533v-17.845l55.467-53.835
				c8.533-7.68,12.8-18.773,12.8-29.867c0-0.447-0.022-0.894-0.038-1.341l13.692-8.9c4.267-2.56,5.12-7.68,2.56-11.947
				c-2.56-4.267-7.68-5.12-11.947-2.56l-9.061,5.89c-2.117-4.089-4.839-7.842-8.006-11.01c-5.697-6.33-13.273-10.306-21.333-11.941
				V101.4c0-5.12-3.413-8.533-8.533-8.533s-8.533,3.413-8.533,8.533v10.231c-6.186,1.222-12.082,3.758-17.067,7.446v-77.41
				c0-4.18-0.586-8.198-1.662-11.991l7.635-7.635c3.413-3.413,3.413-8.533,0-11.947s-8.533-3.413-11.947,0l-3.957,3.957
				C288.338,4.801,276.649-1,263.374-1c-20.204,0-36.744,13.424-41.371,32.016l-3.856-3.856c-3.413-3.413-8.533-3.413-11.947,0
				s-3.413,8.533,0,11.947l14.507,14.507v21.333l-25.6-25.6V24.6c0-5.12-3.413-8.533-8.533-8.533s-8.533,3.413-8.533,8.533v8.623
				c-17.032-11.888-40.793-10.497-55.467,4.177c-5.427,4.884-9.121,11.151-11.097,17.919L96.121,50.2
				c-5.12-1.707-9.387,0.853-11.093,5.12c-1.707,5.12,0.853,9.387,5.12,11.093l20.029,6.676c1.235,9.059,5.362,17.712,12.398,24.044
				l46.539,46.933h-16.672c-5.12,0-8.533,3.413-8.533,8.533c0,5.12,3.413,8.533,8.533,8.533h33.596l34.671,34.965v29.888l-2.56-2.56
				c-3.413-3.413-8.533-3.413-11.947,0s-3.413,8.533,0,11.947l14.507,14.507v39.253h-76.8c-5.12,0-8.533,3.413-8.533,8.533V331.8
				c0,5.12,3.413,8.533,8.533,8.533V357.4v51.2v85.333h-34.133c-5.12,0-8.533,3.413-8.533,8.533s3.413,8.533,8.533,8.533h42.667
				h221.867h42.667c5.12,0,8.533-3.413,8.533-8.533S422.094,493.933,416.974,493.933z M160.974,377.88l45.227,45.227
				c3.413,3.413,8.533,3.413,11.947,0l45.227-45.227l45.227,45.227c3.413,3.413,8.533,3.413,11.947,0l45.227-45.227v27.307
				l-51.2,51.2l-45.227-45.227c-1.707-1.707-3.413-2.56-5.973-2.56s-4.267,0.853-5.973,2.56l-45.227,45.227l-51.2-51.2V377.88z
				 M313.721,134.68c9.387-9.387,26.453-9.387,35.84,0c5.12,4.267,7.68,11.093,7.68,17.92c0,6.827-2.56,12.8-7.68,17.92
				l-43.52,41.813V198.68l23.04-23.04c3.413-3.413,3.413-8.533,0-11.947s-8.533-3.413-11.947,0l-11.093,11.093v-33.28
				L313.721,134.68z M134.521,85.187c-4.564-3.803-7.088-9.641-7.584-15.698c0.566-1.896,0.549-3.666,0.077-5.225
				c0.642-5.775,3.14-11.277,7.507-14.916c5.12-5.12,11.093-7.68,17.92-7.68c6.827,0,12.8,2.56,17.92,7.68l50.347,49.493v33.28
				l-11.093-11.093c-3.413-3.413-8.533-3.413-11.947,0s-3.413,8.533,0,11.947l23.04,23.04v15.36L134.521,85.187z M237.774,196.699
				c0.566-1.217,0.853-2.603,0.853-3.992V96.28c0-1.47-0.291-2.654-0.853-3.722V41.667c0-14.507,11.093-25.6,25.6-25.6
				c9.699,0,17.867,4.963,22.219,12.586c0.14,1.748,0.858,3.462,2.148,4.917c0.799,2.529,1.233,5.246,1.233,8.097v96.427v94.72
				v56.32h-51.2V196.699z M152.441,306.2h76.8h68.267h76.8v17.067H152.441V306.2z M365.774,340.333v13.653l-51.2,51.2
				l-45.227-45.227c-3.413-3.413-8.533-3.413-11.947,0l-45.227,45.227l-51.2-51.2v-13.653H365.774z M160.974,493.933V429.08
				l45.227,45.227c3.413,3.413,8.533,3.413,11.947,0l45.227-45.227l45.227,45.227c1.707,1.707,3.413,2.56,5.973,2.56
				s4.267-0.853,5.973-2.56l45.227-45.227v64.853H160.974z"/>
			<path d="M263.374,84.333v-25.6c0-5.12-3.413-8.533-8.533-8.533s-8.533,3.413-8.533,8.533v25.6c0,5.12,3.413,8.533,8.533,8.533
				S263.374,89.453,263.374,84.333z"/>
			<path d="M271.907,212.333c-5.12,0-8.533,3.413-8.533,8.533V255c0,5.12,3.413,8.533,8.533,8.533s8.533-3.413,8.533-8.533v-34.133
				C280.441,215.747,277.027,212.333,271.907,212.333z"/>
			<path d="M271.907,152.6v-17.067c0-5.12-3.413-8.533-8.533-8.533s-8.533,3.413-8.533,8.533V152.6c0,5.12,3.413,8.533,8.533,8.533
				S271.907,157.72,271.907,152.6z"/>
			<path d="M166.947,61.293c-3.413-3.413-8.533-3.413-11.947,0c-3.413,3.413-3.413,8.533,0,11.947l17.067,17.067
				c1.707,1.707,3.413,2.56,5.973,2.56s4.267-0.853,5.973-2.56c3.413-3.413,3.413-8.533,0-11.947L166.947,61.293z"/>
		</g>
	</g>
</g>
</svg>